<svg xmlns="http://www.w3.org/2000/svg" width="512" height="512" viewBox="0 0 512 512">
        
            <defs>
                <clipPath id="clip-shape">
                    <rect width="100%" height="100%" rx="256" ry="256" />
                </clipPath>
            </defs>
        
		<defs>
			
		</defs>
        <g clip-path="url(#clip-shape)">
            
            <defs>
                <linearGradient id="bg-grad" x1="0%" y1="0%" x2="100%" y2="0%">
                    <stop offset="0%" stop-color="#3420c6" /><stop offset="100%" stop-color="#ff0022" />
                </linearGradient>
            </defs>
            <rect width="100%" height="100%" fill="url(#bg-grad)" />
        
			
				<defs>
					
			<pattern id="bg-pattern" x="0" y="0" width="40" height="40" patternUnits="userSpaceOnUse">
				<path d="M 40 0 L 0 0 0 40" fill="none" stroke="#ffffff" stroke-width="1"/>
			</pattern>
		
				</defs>
				<rect width="100%" height="100%" fill="url(#bg-pattern)" opacity="0.39" />
			
            <g transform="translate(256, 256) scale(0.349609375) rotate(0) translate(-1024, -1024)" opacity="1" >
					<title xmlns="">fluent-mdl2:s-v-n-logo</title>
<path xmlns="http://www.w3.org/2000/svg" fill="currentColor" d="M531 891q0-14 11-28t30-29t40-27t45-25t43-21t33-15l9-4q140-62 287-105t296-80q180-44 360-79t363-62v410q-124 5-246 16t-246 25l-33 3q-131 14-259 27t-259 25q-82 7-164 13t-164 7q-11 0-35-1t-49-6t-43-16t-19-28m1517-635q-235 57-467 113t-467 117q-280 72-563 157T0 838V256zm-401 912q0 21-24 44t-57 43t-65 35t-48 22q-60 27-135 52t-155 48t-156 43t-143 36q-215 54-429 95T0 1658v-436q51-5 102-6t103-6q153-12 304-27t304-31q76-8 157-17t163-16t163-13t157-5q15 0 47 1t65 8t57 20t25 38M89 1510q19 0 19-19t-19-19q-8 0-13 5t-6 14q0 8 5 13t14 6m0-128q19 0 19-19t-19-19q-8 0-13 5t-6 14q0 8 5 13t14 6m71 128q19 0 19-19t-19-19t-19 19t19 19m0-128q19 0 19-19t-19-19t-19 19t19 19M0 1786q255-35 505-91t500-121q265-67 526-144t517-176v532z"/>
				</g>
        </g>
    </svg>